<svg xmlns="http://www.w3.org/2000/svg" xmlns:xlink="http://www.w3.org/1999/xlink" viewBox="0 0 1612 1685"><defs><style>.cls-1{fill:url(#linear-gradient);}.cls-2{fill:#0094d4;}.cls-3{fill:#3e1615;}.cls-4{fill:#3d3d3c;}.cls-5{fill:#f9f9f9;}.cls-6{fill:url(#linear-gradient-2);}.cls-7{fill:#fdffff;}.cls-8{fill:url(#linear-gradient-3);}.cls-9{fill:url(#linear-gradient-4);}.cls-10{fill:#333d72;}.cls-11{fill:url(#linear-gradient-5);}.cls-12{fill:url(#linear-gradient-6);}.cls-13{fill:url(#linear-gradient-7);}.cls-14{fill:url(#linear-gradient-8);}.cls-15{fill:url(#linear-gradient-9);}.cls-16{fill:url(#linear-gradient-10);}.cls-17{fill:url(#linear-gradient-11);}</style><linearGradient id="linear-gradient" x1="443.86" y1="879.03" x2="82.7" y2="1240.19" gradientUnits="userSpaceOnUse"><stop offset="0.03" stop-color="#333d72"/><stop offset="0.34" stop-color="#343c70"/><stop offset="0.52" stop-color="#373867"/><stop offset="0.66" stop-color="#3c3159"/><stop offset="0.79" stop-color="#432745"/><stop offset="0.91" stop-color="#4c1b2c"/><stop offset="1" stop-color="#560e11"/></linearGradient><linearGradient id="linear-gradient-2" x1="465.62" y1="1353.54" x2="1527.83" y2="1353.54" gradientUnits="userSpaceOnUse"><stop offset="0" stop-color="#560e11"/><stop offset="0.66" stop-color="#333d72"/></linearGradient><linearGradient id="linear-gradient-3" x1="463.64" y1="1261.08" x2="1522.05" y2="1261.08" gradientUnits="userSpaceOnUse"><stop offset="0" stop-color="#560e11"/><stop offset="0.77" stop-color="#333d72"/></linearGradient><linearGradient id="linear-gradient-4" x1="553.34" y1="304.86" x2="1074.78" y2="304.86" gradientTransform="translate(0 960.61)" gradientUnits="userSpaceOnUse"><stop offset="0" stop-color="#560e11"/><stop offset="1" stop-color="#0094d4"/></linearGradient><linearGradient id="linear-gradient-5" x1="1195.74" y1="89.43" x2="1293.4" y2="293.17" gradientTransform="translate(0 960.61)" gradientUnits="userSpaceOnUse"><stop offset="0" stop-color="#3c3c3b"/><stop offset="0.88" stop-color="#3e1615"/></linearGradient><linearGradient id="linear-gradient-6" x1="1334.6" y1="56.95" x2="983.04" y2="408.52" gradientTransform="translate(0 960.61)" gradientUnits="userSpaceOnUse"><stop offset="0" stop-color="#0094d4"/><stop offset="0.63" stop-color="#314177"/><stop offset="1" stop-color="#fff"/></linearGradient><linearGradient id="linear-gradient-7" x1="65.49" y1="-246.75" x2="1977.68" y2="-126.5" gradientTransform="translate(0 960.61)" gradientUnits="userSpaceOnUse"><stop offset="0" stop-color="#fff"/><stop offset="0.36" stop-color="#706f6f" stop-opacity="0"/><stop offset="1" stop-color="#706f6f" stop-opacity="0"/></linearGradient><linearGradient id="linear-gradient-8" x1="578.62" y1="2025.61" x2="843.64" y2="2854.37" gradientTransform="matrix(1, 0, 0, -1, 0, 3604.72)" gradientUnits="userSpaceOnUse"><stop offset="0" stop-color="#0094d4"/><stop offset="0.63" stop-color="#7b1216" stop-opacity="0.13"/><stop offset="1" stop-color="#706f6f" stop-opacity="0"/></linearGradient><linearGradient id="linear-gradient-9" x1="939.32" y1="409.49" x2="1233.16" y2="409.49" gradientUnits="userSpaceOnUse"><stop offset="0" stop-color="#0094d4"/><stop offset="1" stop-color="#333d72"/></linearGradient><linearGradient id="linear-gradient-10" x1="872.69" y1="437.25" x2="1059.51" y2="437.25" xlink:href="#linear-gradient-9"/><linearGradient id="linear-gradient-11" x1="756.63" y1="556.04" x2="1035.27" y2="556.04" xlink:href="#linear-gradient-9"/></defs><g id="Layer_13" data-name="Layer 13"><path class="cls-1" d="M114,549.2a40.63,40.63,0,0,0-24.65,6.1,32.58,32.58,0,0,0-12,12.76,34.39,34.39,0,0,0-3.07,12.48C73,612.61,373.71,1531.1,373.71,1531.1A65.19,65.19,0,0,0,398.3,1548c31.62,12,61.33-6.58,65.37-9.19"/><path class="cls-2" d="M809.51,1142.61,476,1529.68c-26,30.22-75.14,20.26-87.34-17.73L93.21,592.05c-8-25,15.35-49,40.45-41.68l488,142.77a53.36,53.36,0,0,1,34.85,33Z"/><path class="cls-3" d="M814.23,1142.61l-333.5,387.07c-26.05,30.22-75.14,20.26-87.35-17.73L97.93,592.05c-8-25,15.36-49,40.45-41.68l488,142.77a53.34,53.34,0,0,1,34.85,33Z"/><path class="cls-4" d="M776.18,1115.18l-341.24,330.9L150,598.16l481.52,130.2a22.31,22.31,0,0,1,15.23,14.2Z"/><path class="cls-5" d="M792.18,1121,425.54,1496.62,128.23,604.68a22.74,22.74,0,0,1,27.93-29L633.69,715.36a40.84,40.84,0,0,1,27.14,25.87Z"/><path class="cls-6" d="M465.85,1525.43c-.47,1.48-.57,3.17,3.06,14.17,3.3,10,4.71,12.62,5.36,13.79,2.37,4.22,4,7.1,7.28,9.19,2,1.25,5,2.48,11.87,2.29,8.51-.22,14.54-2.36,29.87-7.66l12.26-4.21c14.62-4.94,25.75-7.86,30.64-9.19,9.77-2.65,17.28-5.06,65.87-20.3,85.53-26.83,171.13-53.42,256.6-80.42,320.19-101.18,303.89-95.46,343.91-108.77,39.45-13.11,88.17-29.59,157.92-50.93,40.76-12.48,114.37-34.47,114.38-34.47h0s7-3.12,10.72-6.13c4.7-3.77,6.2-8.87,8.43-16.85,1.69-6.06,2.54-11.82,3.06-20.68.79-13.44,1.18-20.16,0-26.81-2.67-15.06-12-28.38-18.38-32.94-24.64-17.57-84.7,38.82-142.47,70.47-59.34,32.51-98.19,29-206,41.36C817.42,1296.59,628.84,1398.41,598,1435.81c-4.93,6-19.45,26.84-46.73,42.13-7.47,4.18-23.07,12-39.83,19.15-12.61,5.39-23.44,14.41-36,19.91C472.93,1518.09,467.41,1520.44,465.85,1525.43Z"/><path class="cls-7" d="M804.72,1143.16,1258.6,987.57a15.84,15.84,0,0,1,13.66,1.62l229,145.66c32.15,20.45,25.76,69.15-10.58,80.62l-1012,319.39c-11.21,3.54-19.89-10-12-18.71Z"/><path class="cls-8" d="M804.72,1143.16,1258.6,987.57a15.84,15.84,0,0,1,13.66,1.62l229,145.66c32.15,20.45,25.76,69.15-10.58,80.62l-1012,319.39c-11.21,3.54-19.89-10-12-18.71Z"/><path class="cls-9" d="M1056.65,1316.65,563.9,1475.89c-7.38,2.39-13.71-5.87-8.87-11.59l275.27-325,244.48-84.66v237.09A26.18,26.18,0,0,1,1056.65,1316.65Z"/><path class="cls-10" d="M1050.3,1310.35,575.92,1463.67c-7.11,2.3-13.2-5.65-8.54-11.16l265-312.92,235.38-81.52V1286.3A25.21,25.21,0,0,1,1050.3,1310.35Z"/><path class="cls-11" d="M1398.8,1106.68l-305.11,104.69a3.45,3.45,0,0,1-4.39-2.13h0a3.41,3.41,0,0,1-.19-1l-2.67-92.46a10.76,10.76,0,0,1,7.07-10.41l201.73-73.56a12.85,12.85,0,0,1,11.66,1.46l93.23,63.63a5.53,5.53,0,0,1-1.33,9.81Z"/><path class="cls-12" d="M1395.48,1107l-298.54,102.43a3.36,3.36,0,0,1-4.29-2.07,3.54,3.54,0,0,1-.19-1l-2.61-90.48a10.52,10.52,0,0,1,6.91-10.18l197.39-72a12.58,12.58,0,0,1,11.41,1.43l91.22,62.26a5.41,5.41,0,0,1-1.3,9.63Z"/><path class="cls-13" d="M1333.51,825.36l-908,671.26c-196.1-583-268.69-803.39-268.69-803.39L137.3,632l-6.83-19.73s-3.36-8-3.33-14.55a24.68,24.68,0,0,1,1-7.14,23.77,23.77,0,0,1,5.63-9.52L795.52-.34Z"/><polygon class="cls-14" points="1423.83 1172.92 423.74 1496.62 148.87 686.07 753.1 157.25 1423.83 1172.92"/><polygon class="cls-10" points="1195.53 658.31 1147.25 640.96 1070.55 557.23 1118.83 574.58 1195.53 658.31"/><polygon class="cls-2" points="999 561.78 950.69 544.44 1011.23 505.1 1059.51 522.45 999 561.78"/><polygon class="cls-15" points="1233.16 600.37 1184.87 583.04 939.32 218.61 987.61 235.96 1233.16 600.37"/><polygon class="cls-2" points="987.61 235.96 939.32 218.61 982.99 214.97 1031.27 232.32 987.61 235.96"/><polygon class="cls-5" points="987.61 235.96 1031.27 232.32 1254.26 567.85 1233.16 600.37 987.61 235.96"/><polygon class="cls-16" points="1059.51 522.45 1011.23 505.1 872.69 352.04 920.98 369.38 1059.51 522.45"/><path class="cls-5" d="M878.49,242.3,1223.3,617l-27.77,41.32-76.7-83.73L1036.9,651l62.22,143.31L1035.3,883,804.91,246.3ZM999,561.78l60.51-39.37L921,369.41l78,192.4"/><polygon class="cls-2" points="804.91 246.33 756.63 228.98 830.2 224.92 878.49 242.26 804.91 246.33"/><polygon class="cls-17" points="1035.27 883.1 986.98 865.75 756.63 228.98 804.91 246.33 1035.27 883.1"/></g></svg>