<svg xmlns="http://www.w3.org/2000/svg" viewBox="0 0 676 197"><defs><style>.cls-1{fill:#9b9b9b;}.cls-2{fill:#3e67ae;}.cls-3{fill:#fff;}</style></defs><g id="Layer_9" data-name="Layer 9"><rect class="cls-1" x="-1556" y="-1862.09" width="2992" height="2767.02"/></g><g id="Layer_14" data-name="Layer 14"><rect width="676" height="197"/></g><g id="Layer_6" data-name="Layer 6"><path class="cls-2" d="M25,95.68V86.07l5-13.23H40.7L38.19,95.68Zm16.7,0V86.07l5-13.23H57.41L54.9,95.68Z"/><path class="cls-3" d="M293,124.59H276.56V92.21H251.27v-12H293ZM267.76,99.82v24.77H251.27V99.82Z"/><path class="cls-3" d="M326.76,82.08a11.64,11.64,0,0,1,5.87,6q1.89,4.17,1.89,11.35v5.91q0,7.17-1.89,11.35a11.66,11.66,0,0,1-5.87,6q-4,1.86-10.65,1.85H300.73v-12h10.43c2.71,0,4.56-.65,5.54-1.93s1.48-3.42,1.48-6.43v-3.7c0-3-.49-5.15-1.48-6.43s-2.83-1.92-5.54-1.92H300.73v-12h15.38A25.68,25.68,0,0,1,326.76,82.08Z"/><path class="cls-3" d="M356.92,101.3q0-5-1.48-7.06t-5.39-2H339v-12h15.82q7,0,11,2a11.78,11.78,0,0,1,5.77,6.24,30,30,0,0,1,1.74,11.24v24.84H356.92Z"/><path class="cls-3" d="M422.35,80.23v21.44a23.15,23.15,0,0,1-2.29,10.91,17.72,17.72,0,0,1-6.51,6.91,42.78,42.78,0,0,1-10.72,4.44l-20.77,5.84L379,118.31l7.32-2.15L379,80.23h16.56l5.76,31.42a7.25,7.25,0,0,0,2.92-1.59,5.08,5.08,0,0,0,1.26-2.81,38.15,38.15,0,0,0,.33-6V80.23Z"/><path class="cls-3" d="M471.66,124.59H455.18V92.21H429.89v-12h41.77ZM446.38,99.82v24.77H429.89V99.82Z"/><path class="cls-3" d="M542.64,101.82q0,8.73-2.52,13.68a14.31,14.31,0,0,1-7.61,7q-5.1,2.07-13.31,2.07H503.38l-4.81-44.36h44.07ZM526.22,92h-10l2.22,20.85h.74a8.84,8.84,0,0,0,4.29-.85,4.91,4.91,0,0,0,2.1-3.18,28.8,28.8,0,0,0,.63-7Z"/><path class="cls-3" d="M546.78,124.59v-12h4c1.48,0,3.23.38,5.23-.62a4.25,4.25,0,0,0,2-4V92h-9V80l22,.23V110.4a25.6,25.6,0,0,1-1.15,8.65,7.28,7.28,0,0,1-3.92,4.28,19.57,19.57,0,0,1-7.87,1.26Z"/><path class="cls-3" d="M604.07,82.08a11.66,11.66,0,0,1,5.88,6q1.89,4.17,1.89,11.35v5.91q0,7.17-1.89,11.35a11.68,11.68,0,0,1-5.88,6q-4,1.86-10.64,1.85H578.05v-12h10.42A22.7,22.7,0,0,0,597,111c1.45-.72,3-4,3-7v-3c0-5-2-5.72-3-7s-5.82-1.79-8.53-1.79H578.05v-12h15.38A25.66,25.66,0,0,1,604.07,82.08Z"/><path class="cls-2" d="M633.42,72.84v9.61l-5,13.23H617.68l2.51-22.84Zm16.71,0v9.61l-5,13.23H634.38l2.52-22.84Z"/><path class="cls-3" d="M71.05,107V79.79H87.78V107Z"/><path class="cls-3" d="M111.63,91.94H93.78V72.28h16v7.51h22.88l-14.7,45h-17.4Z"/><path class="cls-3" d="M179.67,124.79H162.94V91.94H137.29V79.79h42.38ZM154,99.66v25.13H137.29V99.66Z"/><path class="cls-3" d="M218.52,107.69,229,124.79H187.17V112.64H205L184.39,79.79h17l10.12,16.5a3.19,3.19,0,0,0,1.32-1.43,6.38,6.38,0,0,0,.41-2.55V79.79h16.43v13.5Q229.63,104.92,218.52,107.69Z"/><path class="cls-2" d="M592,102.34a5.25,5.25,0,1,1-5.28-5.21A5.12,5.12,0,0,1,592,102.34Z"/></g></svg>